<svg xmlns="http://www.w3.org/2000/svg" version="1.1" xmlns:xlink="http://www.w3.org/1999/xlink" width="512" height="512" x="0" y="0" viewBox="0 0 64 64" style="enable-background:new 0 0 512 512" xml:space="preserve" class=""><g><path fill="#3a7c3f" d="M16 20v24h32V22a9.932 9.932 0 0 1-5.974-2z" opacity="1" data-original="#fab400" class=""></path><path fill="#04c27a" d="m38 9-6-5v4C18.745 8 8 18.745 8 32c0 10.272 6.455 19.032 15.528 22.457l1.791-1.493C16.436 50.135 10 41.821 10 32c0-12.15 9.85-22 22-22v4z" opacity="1" data-original="#64c8f0" class=""></path><path fill="#3a7c3f" d="M16 20h4v24h-4z" opacity="1" data-original="#dc9600" class=""></path><path fill="#04c27a" d="M30 20v6l2-2 2 2v-6z" opacity="1" data-original="#fa6450" class=""></path><path fill="#f0f0f0" d="M38 38h6v2h-6zM38 34h6v2h-6z" opacity="1" data-original="#f0f0f0"></path><path fill="#04c27a" d="M51.286 21.434A21.878 21.878 0 0 1 54 32c0 12.15-9.85 22-22 22v-4l-6 5 6 5v-4c13.255 0 24-10.745 24-24 0-4.135-1.06-8.017-2.902-11.412a10.01 10.01 0 0 1-1.812.846z" opacity="1" data-original="#fa6450" class=""></path><circle cx="48" cy="12" r="8" fill="#3cc8b4" opacity="1" data-original="#3cc8b4"></circle><path fill="#04c27a" d="M42 12c0-4.079 3.055-7.438 7-7.931A8.047 8.047 0 0 0 48 4a8 8 0 0 0 0 16c.339 0 .672-.028 1-.069-3.945-.493-7-3.852-7-7.931z" opacity="1" data-original="#1eaa96" class=""></path><path fill="#f0f0f0" d="m53 10-6 6-4-4 2-2 2 2 4-4z" opacity="1" data-original="#f0f0f0"></path></g></svg>