<svg xmlns="http://www.w3.org/2000/svg" version="1.1" xmlns:xlink="http://www.w3.org/1999/xlink" width="512" height="512" x="0" y="0" viewBox="0 0 60 60" style="enable-background:new 0 0 512 512" xml:space="preserve" class=""><g><path fill="#ffae1f" d="M43 3a2.006 2.006 0 0 0-2-2H8.83a2.006 2.006 0 0 0-1.42.59L1.59 7.41A2.006 2.006 0 0 0 1 8.83V55a2.006 2.006 0 0 0 2 2h40z" opacity="1" data-original="#d6dbe3" class=""></path><rect width="30" height="17" x="7" y="13" fill="#27cdc3" rx="1" opacity="1" data-original="#37cba1" class=""></rect><circle cx="46" cy="46" r="13" fill="#439af6" opacity="1" data-original="#439af6" class=""></circle><path fill="#0b4889" d="M47 43v-1.908a1.079 1.079 0 0 1 1.847-.757l3.838 3.894a1.1 1.1 0 0 1 0 1.542l-3.838 3.894A1.079 1.079 0 0 1 47 48.908V47a13.784 13.784 0 0 0-6.909 2.291 1 1 0 0 1-1.491-1.175C39.483 45.823 41.653 43 47 43z" opacity="1" data-original="#0c70dc" class=""></path><path fill="#f0f2f5" d="M8 1.18V6a2.006 2.006 0 0 1-2 2H1.18a2.017 2.017 0 0 1 .41-.59l5.82-5.82A2.017 2.017 0 0 1 8 1.18z" opacity="1" data-original="#f0f2f5"></path><path fill="#ffffff" d="M12 18h25v11a1 1 0 0 1-1 1H12V18z" opacity="1" data-original="#ffffff" class=""></path><path fill="#d68f00" d="M11 43.1v-5.916A3 3 0 0 1 13 40a1 1 0 0 0 2 0 5.009 5.009 0 0 0-4-4.9V35a1 1 0 0 0-2 0v.1a5 5 0 0 0 0 9.8v5.917A3 3 0 0 1 7 48a1 1 0 0 0-2 0 5.009 5.009 0 0 0 4 4.9v.1a1 1 0 0 0 2 0v-.1a5 5 0 0 0 0-9.8zM7 40a3 3 0 0 1 2-2.816v5.632A3 3 0 0 1 7 40zm4 10.816v-5.632a2.982 2.982 0 0 1 0 5.632z" opacity="1" data-original="#d68f00" class=""></path><g fill="#b9bfcc"><path d="M37.7 37H19a1 1 0 0 1 0-2h18.7zM34.47 41H24a1 1 0 0 1 0-2h10.47zM20 41h-1a1 1 0 0 1 0-2h1a1 1 0 0 1 0 2zM33.15 45H19a1 1 0 0 1 0-2h14.15zM33.15 49H19a1 1 0 0 1 0-2h14.15zM28 53h-9a1 1 0 0 1 0-2h9a1 1 0 0 1 0 2z" fill="#27cdc3" opacity="1" data-original="#b9bfcc" class=""></path></g><path fill="#0b4889" d="M36 12H8a2 2 0 0 0-2 2v15a2 2 0 0 0 2 2h28a2 2 0 0 0 2-2V14a2 2 0 0 0-2-2zm0 2v3H8v-3zm-20 5v2h-3v-2zm15 0v2h-3v-2zm-5 2h-3v-2h3zm-13 2h3v2h-3zm5 0h3v2h-3zm5 0h3v2h-3zm-2-2h-3v-2h3zm-8 6h3v2h-3zm5 0h3v2h-3zm5 0h3v2h-3zm5 0h3v2h-3zm0-2v-2h3v2zm5-2h3v2h-3zm0-2v-2h3v2zM8 19h3v10H8zm25 10v-2h3v2z" opacity="1" data-original="#2aa07c" class=""></path><path fill="#0b4889" d="M46 60a14 14 0 1 1 14-14 14.015 14.015 0 0 1-14 14zm0-26a12 12 0 1 0 12 12 12.013 12.013 0 0 0-12-12z" opacity="1" data-original="#0c70dc" class=""></path></g></svg>